<svg version="1.1" xmlns="http://www.w3.org/2000/svg" style="display: block;" viewBox="0 0 2048 2048" width="1024" height="1024" preserveAspectRatio="none">
<path transform="translate(0,0)" fill="currentColor" d="M 1587.86 929.964 C 1589.04 887.001 1588.07 843.752 1588.07 800.758 C 1588.07 775.621 1591.18 689.33 1584.84 670.153 C 1580.08 655.733 1571.72 657.858 1565.12 647.96 L 1565.51 646.457 C 1570.8 644.696 1654.76 645.637 1668.39 645.339 L 1669.37 646.468 C 1668.74 653.936 1655.18 657.592 1652.16 663.619 C 1648.86 670.199 1646.07 682.354 1646.06 689.726 C 1646.04 724.664 1646.11 759.821 1646.09 794.745 L 1646.05 1014.96 L 1646.2 1154.33 C 1646.32 1179.56 1642.05 1212.98 1653.03 1235.87 C 1655.51 1241.04 1672.9 1249.31 1667.96 1255.23 C 1662.07 1256.72 1655.9 1256.24 1649.75 1256.17 L 1592.22 1256.17 C 1584.65 1256.17 1575.6 1256.33 1567.94 1255.81 C 1565.88 1255.68 1565.3 1253.91 1564.48 1252.41 L 1565.31 1249.99 C 1568.65 1246.57 1572.29 1245.42 1576.71 1243.44 C 1590.69 1223.82 1588.19 1207.55 1588.15 1184.76 L 1588.04 1133.91 L 1588.08 951.986 L 1252.75 951.985 C 1251.72 962.438 1252.32 981.685 1252.32 992.993 L 1252.35 1070.67 L 1252.4 1157.61 C 1252.37 1180.56 1251.53 1202.55 1254.98 1225.34 C 1257.35 1240.95 1276.45 1247.57 1274.36 1255.17 C 1270.26 1256.66 1179.79 1257.07 1173.28 1255.46 C 1171.47 1250.03 1187.83 1238.75 1191.53 1228.17 C 1196.78 1213.17 1194.07 1124.03 1194.07 1101.98 L 1194.03 871.111 L 1194.03 749.153 C 1194.04 727.908 1194.18 706.279 1193.86 685.039 C 1193.77 679.104 1190.79 668.986 1187.9 663.854 C 1183 655.133 1180.29 654.488 1171.6 651.735 C 1170.69 648.937 1171.47 648.469 1172.42 645.039 C 1199.54 645.341 1226.59 646.849 1253.88 645.802 C 1258.21 645.636 1272.4 644.616 1275.13 646.308 C 1276.22 649.152 1276.32 647.798 1275.35 650.464 C 1272.18 653.673 1269.97 653.894 1265.5 655.32 C 1261.57 659.645 1255.33 667.88 1254.57 673.639 C 1250.65 703.126 1252.14 735.654 1252.2 765.369 L 1252.13 929.075 C 1264.57 929.63 1278.82 929.074 1291.5 929.105 C 1315.14 929.384 1338.77 929.48 1362.41 929.393 L 1587.86 929.964 z"></path>
<path transform="translate(0,0)" fill="currentColor" d="M 726.576 534.444 C 730.21 534.226 733.851 534.161 737.49 534.252 C 822.053 536.1 903.274 568.969 961.94 630.528 C 975.92 645.198 1011.62 687.427 1012.14 710.058 C 1012.13 714.453 1009.31 721.316 1005.57 723.776 C 986.105 736.595 973.166 704.761 966.169 693.027 C 961.967 686.021 957.333 679.282 952.295 672.851 C 910.25 618.506 840.907 581.359 773.007 572.719 C 696.708 562.325 619.456 583.329 558.924 630.925 C 495.086 680.629 459.703 749.381 449.631 828.803 C 451.623 829.22 453.602 829.699 455.564 830.239 C 476.047 835.969 489.128 856.037 489.161 876.846 C 489.25 932.331 489.615 987.924 488.86 1043.41 C 488.526 1067.96 477.161 1080.7 455.87 1090.83 C 486.557 1182.62 571.84 1246.81 663.591 1268.84 C 721.928 1283.83 768.114 1278 825.383 1265.55 C 836.905 1224.89 854.899 1231.57 890.241 1219.96 C 914.193 1212.09 937.602 1204.96 957.264 1225.54 C 967.53 1236.45 972.832 1251.11 971.913 1266.06 C 971.249 1278.48 965.413 1290.7 955.895 1298.75 C 952.256 1301.81 948.125 1304.22 943.677 1305.89 C 940.798 1306.98 931.807 1308.94 928.255 1309.74 C 911.016 1313.65 884.008 1325.3 867.049 1323.67 C 848.024 1321.84 841.719 1312.16 831.567 1299.83 C 819.773 1300.65 807.365 1304.94 795.798 1306.77 C 784.272 1308.58 770.87 1309.65 759.194 1310.62 C 669.583 1317.68 580.828 1288.92 512.386 1230.65 C 474.53 1198.46 444.949 1157.66 426.127 1111.67 C 412.627 1078.37 415.956 1065.23 416.004 1029.82 L 416.118 941.018 L 416.038 860.607 C 416.025 848.004 415.412 822.699 416.835 811.329 C 424.17 752.703 454.283 686.891 493.794 643.434 C 558.819 571.915 632.133 540.497 726.576 534.444 z"></path>
<path transform="translate(0,0)" fill="currentColor" d="M 395.189 833.721 L 397.239 834.236 C 399.783 840.678 397.958 1063.75 398 1089.77 C 384.17 1086.39 381.032 1084.6 370.353 1075.97 C 354.167 1059.26 352.722 1049.37 352.889 1026.97 C 353.242 979.701 352.924 932.362 354.049 885.11 C 354.688 858.264 371.85 843.088 395.189 833.721 z"></path>
<path transform="translate(0,0)" fill="currentColor" d="M 980.093 1419.89 C 1016.45 1421.51 1082.26 1407.18 1068.38 1472.62 C 1066.36 1482.14 1055.67 1488.39 1047.59 1492.51 C 1056.11 1505.34 1065.55 1517.04 1073.99 1530.11 L 1062.71 1529.98 L 1048.96 1529.94 C 1041.83 1521.15 1032.64 1506.54 1025.39 1496.6 C 1017.62 1495.94 1008.2 1496.5 1000.02 1496.29 L 999.87 1530.14 C 993.205 1529.99 986.564 1530.34 979.902 1530.6 L 980.093 1419.89 z M 1000.12 1477.8 C 1013.83 1477.81 1033.38 1479.65 1044.09 1471.13 C 1050.92 1461.74 1054.74 1450.2 1042.25 1443.56 C 1029.68 1436.86 1013.84 1440.63 1000.27 1439.68 C 1000.09 1452.39 1000.04 1465.1 1000.12 1477.8 z"></path>
<path transform="translate(0,0)" fill="currentColor" d="M 1306.42 1445.13 C 1313.96 1444.29 1325.87 1443.8 1331.97 1448.36 C 1335.97 1451.35 1337.88 1453.17 1342.6 1455.01 L 1343.89 1454.4 C 1343.89 1451.44 1343.9 1450.52 1344.33 1447.49 C 1347.2 1446.46 1359.79 1446.48 1363.91 1446.34 C 1362.88 1458.66 1363.52 1478.24 1363.56 1491.04 L 1363.61 1563.98 C 1357.34 1563.8 1351.18 1565.36 1345.75 1563.38 C 1343.23 1560.68 1344.08 1561.2 1344 1556.25 C 1344.18 1544.83 1343.93 1532.75 1343.87 1521.28 C 1290.77 1564.64 1236.89 1469.06 1306.42 1445.13 z M 1323.47 1512.72 C 1336.85 1509.9 1345.47 1496.84 1342.79 1483.43 C 1340.11 1470.02 1327.14 1461.27 1313.7 1463.81 C 1304.89 1465.48 1297.65 1471.75 1294.74 1480.24 C 1291.84 1488.72 1293.71 1498.12 1299.66 1504.84 C 1305.6 1511.56 1314.7 1514.56 1323.47 1512.72 z"></path>
<path transform="translate(0,0)" fill="currentColor" d="M 746.94 1415.1 L 767.767 1414.92 L 767.939 1455.3 C 810.844 1419.83 860.035 1481.36 821.806 1521.3 C 818.673 1524.38 809.821 1529.57 805.696 1530.74 C 787.844 1535.83 781.16 1528.1 768.244 1521.59 L 767.114 1522.25 C 767.393 1524.9 767.528 1526.78 767.622 1529.49 C 764.041 1530.58 752.435 1530.2 748.013 1530.19 L 748.124 1454.68 C 748.139 1445.72 748.721 1422.85 746.94 1415.1 z M 765.665 1488.02 C 769.514 1503.95 775.465 1512.85 793.159 1513.88 C 809.29 1510.61 817.739 1498.09 814.272 1481.87 C 813.01 1475.7 809.297 1470.31 803.985 1466.93 C 798.377 1463.35 792.754 1462.91 786.271 1463.25 C 772.33 1467.69 768.842 1473.91 765.665 1488.02 z"></path>
<path transform="translate(0,0)" fill="currentColor" d="M 1109.47 1445.18 C 1111.32 1445.06 1113.17 1444.98 1115.02 1444.94 C 1127.19 1444.6 1138.69 1445.95 1147.86 1455.07 C 1151.53 1458.69 1154.17 1463.21 1155.53 1468.17 C 1158.28 1477.96 1157.28 1517.66 1157.26 1529.89 C 1153.13 1530 1141.88 1530.66 1138.61 1529.63 C 1138.31 1527.78 1138.1 1526.4 1137.92 1524.5 L 1137.8 1523.02 C 1131.4 1523.87 1126.43 1530.03 1119.46 1531.62 C 1108.47 1534.12 1098.86 1530.15 1089.83 1524.62 C 1083.65 1518.26 1082.17 1513.16 1081.47 1504.48 C 1078.68 1469.65 1131.93 1484.34 1137.48 1478.59 C 1133.23 1454.17 1106.97 1462.61 1090.91 1468.36 C 1089.8 1462.91 1088.17 1456.83 1086.84 1451.37 C 1094.89 1448.87 1101.25 1446.89 1109.47 1445.18 z M 1124.67 1515.09 C 1129.27 1512.63 1130.14 1512.01 1134.02 1508.52 C 1135.03 1504.05 1136 1499.58 1136.95 1495.11 C 1129.8 1494.69 1121.72 1494.03 1114.66 1494.22 C 1090.8 1500.08 1102.72 1519.76 1124.67 1515.09 z"></path>
<path transform="translate(0,0)" fill="currentColor" d="M 906.873 1446.54 C 913.193 1446.09 921.211 1446.27 927.684 1446.25 C 920.113 1469.58 906.094 1498.98 896.557 1522.76 C 884.426 1554.94 876.108 1574.84 838.708 1557.03 L 845.506 1541.49 C 863.692 1547.22 864.157 1547.5 873.471 1530.67 C 869.603 1523.49 864.551 1510.36 861.113 1502.45 L 836.907 1446.8 L 849.599 1446.42 L 859.021 1447.05 C 867.542 1466.25 875.508 1487.58 882.951 1507.26 C 891.187 1489.1 899.597 1465.49 906.873 1446.54 z"></path>
<path transform="translate(0,0)" fill="currentColor" d="M 1211.93 1411.38 C 1218.28 1410.48 1225.26 1412.36 1231.49 1413.75 C 1229.37 1419.41 1229.19 1423.44 1228.11 1427.2 C 1226.31 1433.45 1213.88 1428.25 1208.49 1430.64 C 1203.25 1435.29 1203.56 1440.55 1202.81 1447.42 C 1209.81 1447.36 1216.95 1447.69 1223.96 1447.94 L 1223.87 1464.36 C 1216.04 1464.04 1210.69 1464.34 1202.83 1464.86 C 1203.64 1482.02 1202.88 1504.48 1203.03 1522.24 C 1202.86 1526.52 1203.59 1526.63 1201.48 1529.35 C 1196.73 1531.25 1188.77 1530.22 1183.02 1530.12 C 1181.98 1510.71 1182.91 1484.99 1183.06 1465.13 L 1170.7 1464.89 C 1170.5 1458.93 1170.52 1452.7 1170.45 1446.71 L 1182.52 1446.71 C 1183.38 1425.69 1189.54 1413.5 1211.93 1411.38 z"></path>
<path transform="translate(0,0)" fill="currentColor" d="M 1236.02 1447.04 L 1256.11 1447 L 1255.87 1530.06 C 1249.45 1530 1242.5 1530.4 1236.02 1530.66 C 1236.18 1502.79 1236.18 1474.91 1236.02 1447.04 z"></path>
<path transform="translate(0,0)" fill="currentColor" d="M 1243.17 1407.12 C 1247.97 1406.04 1252.98 1407.63 1256.27 1411.29 C 1259.56 1414.95 1260.61 1420.1 1259.02 1424.76 C 1257.43 1429.41 1253.45 1432.85 1248.61 1433.73 C 1241.34 1435.06 1234.34 1430.34 1232.86 1423.09 C 1231.38 1415.85 1235.96 1408.75 1243.17 1407.12 z"></path>
</svg>